<mxfile host="app.diagrams.net" modified="2024-01-26T11:59:47.596Z" agent="Mozilla/5.0 (Windows NT 10.0; Win64; x64) AppleWebKit/537.36 (KHTML, like Gecko) Chrome/120.0.0.0 Safari/537.36" etag="iZtf0svS-o-RAA_vGHGO" version="23.0.1" type="github">
  <diagram name="Page-1" id="nPYpIHltbpekkVtMS4bd">
    <mxGraphModel dx="2062" dy="778" grid="1" gridSize="10" guides="1" tooltips="1" connect="1" arrows="1" fold="1" page="1" pageScale="1" pageWidth="827" pageHeight="1169" math="0" shadow="0">
      <root>
        <mxCell id="0" />
        <mxCell id="1" parent="0" />
        <mxCell id="aBy6GEqbiYUphWqVkpnS-6" value="" style="edgeStyle=orthogonalEdgeStyle;rounded=0;orthogonalLoop=1;jettySize=auto;html=1;" edge="1" parent="1" source="aBy6GEqbiYUphWqVkpnS-1" target="aBy6GEqbiYUphWqVkpnS-2">
          <mxGeometry relative="1" as="geometry" />
        </mxCell>
        <mxCell id="aBy6GEqbiYUphWqVkpnS-1" value="Image Data Pre-Processing" style="rounded=1;whiteSpace=wrap;html=1;fillColor=#dae8fc;strokeColor=#6c8ebf;" vertex="1" parent="1">
          <mxGeometry x="19" y="280" width="120" height="60" as="geometry" />
        </mxCell>
        <mxCell id="aBy6GEqbiYUphWqVkpnS-4" value="" style="edgeStyle=orthogonalEdgeStyle;rounded=0;orthogonalLoop=1;jettySize=auto;html=1;" edge="1" parent="1" source="aBy6GEqbiYUphWqVkpnS-2" target="aBy6GEqbiYUphWqVkpnS-3">
          <mxGeometry relative="1" as="geometry" />
        </mxCell>
        <mxCell id="aBy6GEqbiYUphWqVkpnS-2" value="Deep Neural Networks" style="rounded=1;whiteSpace=wrap;html=1;fillColor=#dae8fc;strokeColor=#6c8ebf;" vertex="1" parent="1">
          <mxGeometry x="229" y="280" width="120" height="60" as="geometry" />
        </mxCell>
        <mxCell id="aBy6GEqbiYUphWqVkpnS-8" style="edgeStyle=orthogonalEdgeStyle;rounded=0;orthogonalLoop=1;jettySize=auto;html=1;exitX=1;exitY=0.5;exitDx=0;exitDy=0;" edge="1" parent="1" source="aBy6GEqbiYUphWqVkpnS-3">
          <mxGeometry relative="1" as="geometry">
            <mxPoint x="689" y="310" as="targetPoint" />
          </mxGeometry>
        </mxCell>
        <mxCell id="aBy6GEqbiYUphWqVkpnS-12" style="edgeStyle=orthogonalEdgeStyle;rounded=0;orthogonalLoop=1;jettySize=auto;html=1;exitX=1;exitY=0.5;exitDx=0;exitDy=0;entryX=0;entryY=0.5;entryDx=0;entryDy=0;" edge="1" parent="1" source="aBy6GEqbiYUphWqVkpnS-3" target="aBy6GEqbiYUphWqVkpnS-11">
          <mxGeometry relative="1" as="geometry" />
        </mxCell>
        <mxCell id="aBy6GEqbiYUphWqVkpnS-3" value="Multi-Target Tracking" style="rounded=1;whiteSpace=wrap;html=1;fillColor=#dae8fc;strokeColor=#6c8ebf;" vertex="1" parent="1">
          <mxGeometry x="449" y="280" width="120" height="60" as="geometry" />
        </mxCell>
        <mxCell id="aBy6GEqbiYUphWqVkpnS-5" value="Detections" style="text;html=1;align=center;verticalAlign=middle;resizable=0;points=[];autosize=1;strokeColor=none;fillColor=none;" vertex="1" parent="1">
          <mxGeometry x="359" y="288" width="80" height="30" as="geometry" />
        </mxCell>
        <mxCell id="aBy6GEqbiYUphWqVkpnS-9" value="Track Data" style="text;html=1;strokeColor=none;fillColor=none;align=center;verticalAlign=middle;whiteSpace=wrap;rounded=0;" vertex="1" parent="1">
          <mxGeometry x="589" y="288" width="80" height="30" as="geometry" />
        </mxCell>
        <mxCell id="aBy6GEqbiYUphWqVkpnS-10" value="Display Output" style="rounded=1;whiteSpace=wrap;html=1;fillColor=#dae8fc;strokeColor=#6c8ebf;" vertex="1" parent="1">
          <mxGeometry x="689" y="280" width="120" height="60" as="geometry" />
        </mxCell>
        <mxCell id="aBy6GEqbiYUphWqVkpnS-11" value="UDP Protocol" style="rounded=1;whiteSpace=wrap;html=1;fillColor=#dae8fc;strokeColor=#6c8ebf;" vertex="1" parent="1">
          <mxGeometry x="689" y="380" width="120" height="60" as="geometry" />
        </mxCell>
        <mxCell id="aBy6GEqbiYUphWqVkpnS-14" value="" style="edgeStyle=orthogonalEdgeStyle;rounded=0;orthogonalLoop=1;jettySize=auto;html=1;" edge="1" parent="1" source="aBy6GEqbiYUphWqVkpnS-13" target="aBy6GEqbiYUphWqVkpnS-1">
          <mxGeometry relative="1" as="geometry" />
        </mxCell>
        <mxCell id="aBy6GEqbiYUphWqVkpnS-13" value="Video Capture" style="rounded=1;whiteSpace=wrap;html=1;fillColor=#dae8fc;strokeColor=#6c8ebf;" vertex="1" parent="1">
          <mxGeometry x="-190" y="280" width="120" height="60" as="geometry" />
        </mxCell>
      </root>
    </mxGraphModel>
  </diagram>
</mxfile>
